<?xml version="1.0" standalone="no"?>
<!DOCTYPE svg PUBLIC "-//W3C//DTD SVG 20010904//EN"
 "http://www.w3.org/TR/2001/REC-SVG-20010904/DTD/svg10.dtd">
<svg version="1.0" xmlns="http://www.w3.org/2000/svg"
 width="500.000000pt" height="500.000000pt" viewBox="0 0 500.000000 500.000000"
 preserveAspectRatio="xMidYMid meet">

<g transform="translate(0.000000,500.000000) scale(0.100000,-0.100000)"
fill="#ffffff " stroke="none">
<path d="M4161 3565 c-46 -19 -85 -35 -87 -37 -2 -2 5 -22 16 -44 12 -25 21
-73 26 -135 l6 -96 -503 -6 c-277 -4 -1115 -7 -1861 -7 l-1358 0 0 -31 0 -31
1858 3 1857 4 5 -605 5 -605 23 -37 c25 -41 91 -78 138 -78 67 1 131 47 149
109 7 23 7 23 -16 7 -26 -18 -81 -21 -109 -6 -38 20 -40 55 -40 646 l0 574
120 0 120 0 0 30 0 30 -120 0 -120 0 0 175 c0 134 -3 175 -12 174 -7 0 -51
-16 -97 -34z"/>
<path d="M2097 3085 c-159 -44 -279 -157 -301 -285 -5 -33 -4 -31 25 20 79
144 227 230 395 230 98 0 168 -27 239 -92 66 -60 118 -158 141 -268 22 -102
22 -312 0 -404 -37 -155 -124 -274 -243 -332 -53 -26 -67 -29 -163 -29 -85 1
-116 5 -161 23 -104 41 -180 128 -221 252 -21 62 -22 86 -26 478 -3 312 -6
413 -15 409 -7 -2 -46 -17 -88 -32 l-76 -29 18 -40 c18 -39 19 -83 18 -811 0
-649 -2 -774 -14 -795 -8 -14 -14 -28 -15 -32 0 -5 47 -8 105 -8 58 0 105 2
105 3 0 2 -8 19 -17 38 -16 30 -18 73 -21 359 l-4 324 44 -45 c86 -92 188
-137 328 -146 300 -19 540 170 596 467 19 100 14 270 -11 365 -51 195 -181
334 -358 381 -65 17 -216 17 -280 -1z"/>
<path d="M3355 3090 c-218 -29 -426 -214 -485 -430 -76 -277 40 -575 275 -711
94 -54 169 -74 285 -74 126 0 215 24 305 83 272 177 361 518 213 815 -111 220
-351 348 -593 317z m239 -85 c116 -55 221 -194 262 -345 24 -88 24 -253 1
-340 -74 -278 -299 -447 -513 -385 -201 57 -338 259 -351 516 -10 181 41 337
148 453 94 103 174 138 304 133 74 -3 101 -8 149 -32z"/>
<path d="M741 3070 c-91 -24 -144 -55 -198 -113 -42 -45 -73 -121 -73 -177 0
-55 31 -132 72 -176 73 -79 151 -111 415 -173 197 -46 273 -72 318 -112 46
-41 59 -78 53 -154 -13 -158 -133 -251 -338 -262 -211 -11 -377 72 -457 231
l-28 56 -35 -42 c-67 -82 -65 -72 -26 -116 46 -51 154 -107 253 -133 102 -26
292 -35 408 -20 242 33 380 129 403 281 18 122 -20 209 -118 268 -70 42 -162
70 -375 117 -321 70 -395 119 -395 257 1 69 26 123 82 174 69 63 121 79 263
79 162 0 234 -24 317 -104 38 -37 60 -68 64 -89 4 -18 9 -32 13 -32 3 0 14 37
24 81 21 93 25 86 -63 120 -157 60 -427 78 -579 39z"/>
<path d="M2040 1546 l0 -196 115 0 115 0 0 25 c0 25 -1 25 -90 25 l-90 0 -2
168 c-3 165 -3 167 -25 170 l-23 3 0 -195z"/>
<path d="M2737 1733 c-6 -10 -157 -375 -157 -379 0 -2 11 -4 24 -4 20 0 28 9
42 45 l17 45 94 0 94 0 19 -45 c15 -36 24 -45 44 -45 26 0 25 3 -131 378 -6
13 -39 17 -46 5z m62 -163 c17 -41 31 -78 31 -82 0 -5 -31 -8 -70 -8 -38 0
-70 4 -70 9 0 23 64 171 71 164 4 -4 21 -42 38 -83z"/>
<path d="M3280 1547 l0 -197 88 0 c74 0 96 4 139 26 42 20 57 35 77 77 30 58
33 111 11 164 -35 82 -88 111 -220 120 l-95 6 0 -196z m199 125 c71 -36 100
-123 65 -197 -26 -55 -65 -75 -146 -75 l-68 0 0 145 0 145 58 0 c34 0 70 -7
91 -18z"/>
<path d="M3930 1735 c0 -2 32 -58 70 -123 69 -117 70 -119 70 -190 0 -70 1
-72 25 -72 24 0 25 2 25 71 0 69 1 72 70 189 39 65 70 121 70 124 0 3 -11 6
-24 6 -20 0 -34 -17 -82 -100 l-58 -100 -58 100 c-49 84 -62 100 -83 100 -14
0 -25 -2 -25 -5z"/>
</g>
</svg>
